<?xml version="1.0" encoding="UTF-8" standalone="no"?>
<svg
   xmlns:dc="http://purl.org/dc/elements/1.1/"
   xmlns:cc="http://creativecommons.org/ns#"
   xmlns:rdf="http://www.w3.org/1999/02/22-rdf-syntax-ns#"
   xmlns:svg="http://www.w3.org/2000/svg"
   xmlns="http://www.w3.org/2000/svg"
   id="svg8"
   version="1.1"
   viewBox="0 0 101.79724 79.74411"
   height="79.74411mm"
   width="101.79724mm">
  <defs
     id="defs2">
    <clipPath
       clipPathUnits="userSpaceOnUse"
       id="clipPath3729">
      <path
         d="M -9,-9 H 851 V 605 H -9 Z"
         id="path3727"
         style="clip-rule:evenodd" />
    </clipPath>
  </defs>
  <metadata
     id="metadata5">
    <rdf:RDF>
      <cc:Work
         rdf:about="">
        <dc:format>image/svg+xml</dc:format>
        <dc:type
           rdf:resource="http://purl.org/dc/dcmitype/StillImage" />
        <dc:title></dc:title>
      </cc:Work>
    </rdf:RDF>
  </metadata>
  <g
     transform="translate(-39.601987,-52.264856)"
     id="layer1">
    <g
       id="g3721"
       transform="matrix(0.35277777,0,0,-0.35277777,-25.279785,238.71424)">
      <g
         id="g3723">
        <g
           id="g3731">
          <path
             id="path3733"
             style="fill:#ff0000;fill-opacity:1;fill-rule:nonzero;stroke:none"
             d="m 360.44739,439.11005 c 41.2345,15.4395 51.6705,20.4327 91.1696,35.47 -18.4272,14.5802 -36.0533,29.0296 -55.3859,45.1374 3.4073,0.4836 10.1435,1.732 10.1435,1.732 23.4034,-19.2022 43.6609,-35.3415 57.5351,-46.6276 -0.0448,-28.577 0.4737,-48.0549 0.3966,-78.7655 -3.9271,-2.1617 -4.58,-2.505 -7.5739,-4.1527 0.0255,31.481 -0.4003,43.5923 -0.3731,75.0733 -37.953,-14.0808 -56.5565,-22.0354 -91.5003,-34.797 0.1683,-32.7396 -0.1622,-82.967 0,-114.4587 -2.4917,-0.9465 -5.4817,-1.7779 -8.1556,-2.7406 -0.1993,35.9813 0.3662,81.7093 0.1638,116.2225 -24.203,21.13 -48.5183,41.0428 -72.6672,62.2352 -7.4427,6.7215 -16.8852,13.8433 -24.6901,20.6337 -28.6665,-8.3741 -47.5957,-16.0586 -75.4194,-24.0687 0.5995,-39.4095 -0.601,-87.1087 0,-126.5182 56.8332,-19.8147 102.8027,-42.7564 156.4271,-61.0135 v 9.1993 l -149.5177,57.3837 c -0.2247,33.262 1.5693,84.1592 1.325,114.9092 27.0155,8.7259 42.3036,13.767 64.7322,21.1972 26.0433,-22.6573 67.9158,-55.4533 91.9012,-78.1368 0.0139,-10.648 -0.415,-110.8298 -0.2937,-122.5377 0.853,0.2579 1.6844,0.5131 2.494,0.7656 l -0.0386,-0.7656 0.0485,0.7696 c 8.4761,2.643 14.7158,5.0063 20.7799,7.3636 0.1613,32.7965 0.1026,80.9203 0,112.8075 28.6827,10.3791 51.1019,19.8196 76.7597,28.9038 -0.002,-27.639 0.002,-45.3238 0,-74.5813 10.3144,4.9377 14.0584,7.043 23.6083,11.5983 0.0896,36.5439 0.2959,51.3941 0.0241,88.0837 -18.1222,13.6565 -42.2566,30.7347 -63.3523,49.0862 -11.0087,-1.3567 -17.9159,-2.5311 -29.7627,-4.0677 19.7762,-17.2041 40.7081,-33.7431 57.6774,-48.4679 -21.3554,-8.1295 -48.333,-18.1693 -73.8502,-27.8825 -21.0866,17.9105 -59.9782,50.0434 -77.8708,65.6099 -3.4645,6e-4 -8.3512,-0.0434 -11.1254,-0.0797 28.2963,-25.1566 57.8489,-49.6896 86.3909,-74.52" />
          <path
             id="path3735"
             style="fill:#000000;fill-opacity:1;fill-rule:nonzero;stroke:none"
             d="m 437.06429,13.676867 c 9.4,0 17.2332,8.3126 17.2332,22.4776 v 1.2722 c 0,14.1653 -7.8332,22.4779 -17.1212,22.4779 -9.4,0 -17.2333,-8.3126 -17.2333,-22.4779 v -1.2722 c 0,-14.165 7.8333,-22.4776 17.1213,-22.4776 z m 0,4.8348 c -5.7067,0 -10.1832,6.7008 -10.1832,17.6428 0,4.7548 0.9113,18.9153 10.1832,18.9153 5.707,0 10.1832,-6.6161 10.1832,-17.5578 v -1.3575 c 0,-10.942 -4.4762,-17.6428 -10.1832,-17.6428 z m 38.2708,-4.8348 c 4.9816,0 8.2041,2.1676 10.3788,4.928 0.2058,0.2617 0.5394,0.3592 0.8541,0.2506 0.3143,-0.1091 0.5162,-0.3926 0.5162,-0.7254 v -2.9225 c 0,-0.4229 0.3449,-0.7676 0.7673,-0.7676 h 5.4037 c 0.4221,0 0.767,0.3447 0.767,0.7676 v 43.251 c 0,0.4232 -0.3449,0.7676 -0.767,0.7676 h -5.4037 c -0.4224,0 -0.7673,-0.3444 -0.7673,-0.7676 v -29.9378 c 0,-6.1075 -4.14,-10.1787 -9.3992,-10.1787 -5.2594,0 -8.2811,3.4773 -8.2811,9.7543 v 30.3622 c 0,0.4232 -0.345,0.7676 -0.7679,0.7676 h -5.402 c -0.4229,0 -0.7682,-0.3444 -0.7682,-0.7676 v -31.2953 c 0,-8.4821 5.0363,-13.4864 12.8693,-13.4864 z m 38.4937,0.1695 c 7.8332,0 14.6596,4.1562 14.6596,10.857 v 0.1701 c 0,4.8347 -3.0214,8.4821 -10.9667,14.5045 -6.8261,5.0891 -8.7281,7.2097 -8.7281,10.0092 v 0.1695 c 0,3.3077 3.1331,5.3436 7.3851,5.3436 3.0047,0 5.8291,-0.4754 8.7148,-1.4868 0.2421,-0.0847 0.4881,-0.0504 0.6979,0.0981 0.2092,0.1488 0.3234,0.3696 0.3234,0.6262 v 3.6776 c 0,0.3427 -0.2154,0.6336 -0.5428,0.7342 -2.9186,0.8935 -5.6095,1.2705 -9.1933,1.2705 -7.833,0 -14.3232,-3.9022 -14.3232,-10.5182 v -0.1696 c 0,-4.8347 3.1331,-8.4821 11.0784,-14.2503 6.6027,-4.75 8.6164,-7.4639 8.6164,-10.2634 v -0.1692 c 0,-3.5626 -3.4687,-5.7682 -7.8332,-5.7682 -3.282,0 -6.9412,0.8557 -10.7181,2.2396 -0.2427,0.089 -0.4913,0.0567 -0.7036,-0.0915 -0.2123,-0.148 -0.3282,-0.3705 -0.3282,-0.629 v -3.6888 c 0,-0.3333 0.2027,-0.6174 0.5179,-0.7259 3.6241,-1.2436 7.1787,-1.9392 11.3437,-1.9392 z m 39.2777,-0.0848 c 4.5053,0 7.4681,0.701 11.4516,2.4775 0.3153,0.1401 0.4938,0.4589 0.4488,0.8017 l -0.4584,3.4684 c -0.0332,0.2512 -0.1715,0.453 -0.3943,0.5738 -0.2228,0.1213 -0.4671,0.1281 -0.6956,0.0195 -3.4189,-1.6228 -5.9584,-2.3366 -9.3444,-2.3366 -6.8672,0 -12.4606,4.7483 -13.1596,14.872 -0.0153,0.22 0.0547,0.4153 0.2052,0.5766 0.1503,0.1615 0.3402,0.244 0.5613,0.244 h 23.9346 c 0.4224,0 0.7674,0.3444 0.7674,0.7674 v 2.6251 c 0,14.1653 -6.6019,22.0536 -15.7782,22.0536 -8.9519,0 -16.6734,-7.634 -16.6734,-22.8169 v -1.1875 c 0,-14.6747 8.9521,-22.1386 19.135,-22.1386 z m -12.1646,25.9127 c 0.5113,10.3158 4.5759,15.3955 9.703,15.3955 5.2234,0 8.8602,-6.2569 9.0564,-15.4168 0.004,-0.2146 -0.0692,-0.4005 -0.2189,-0.5536 -0.1502,-0.1531 -0.3345,-0.231 -0.549,-0.231 h -17.2242 c -0.2188,0 -0.4062,0.0805 -0.5567,0.2389 -0.1503,0.1579 -0.2211,0.3493 -0.2106,0.567 z m 32.2914,-25.2343 h 28.9032 c 0.4229,0 0.767,0.3447 0.767,0.7676 v 3.8937 c 0,0.4229 -0.3441,0.7673 -0.767,0.7673 h -20.0013 c -0.2871,0 -0.5332,0.1451 -0.6724,0.3963 -0.1383,0.2511 -0.1309,0.5366 0.0219,0.7798 l 14.5927,23.2529 c 4.3645,6.8703 6.4908,11.1965 6.4908,16.5404 v 0.339 c 0,7.8883 -6.4908,12.9779 -16.2261,12.9779 -4.5785,0 -8.4484,-0.9218 -11.5118,-2.2538 -0.2863,-0.1242 -0.4614,-0.3912 -0.4614,-0.7033 v -3.9107 c 0,-0.267 0.1238,-0.4963 0.3466,-0.642 0.2228,-0.1463 0.4825,-0.1687 0.7268,-0.0621 2.922,1.2691 6.0197,2.1433 10.0046,2.1433 5.9307,0 9.847,-3.3083 9.847,-8.3974 0,-4.411 -1.7901,-8.3973 -5.483,-14.1653 l -17.2267,-27.3801 c -0.0811,-0.1273 -0.1182,-0.2571 -0.1182,-0.4085 v -3.1674 c 0,-0.4229 0.3449,-0.7676 0.7673,-0.7676 z m 39.6139,0 h 5.7382 c 0.422,0 0.7673,0.3447 0.7673,0.7676 v 25.778 c 0,0.4229 0.345,0.7673 0.767,0.7673 h 19.279 c 0.4233,0 0.7682,-0.3444 0.7682,-0.7673 v -25.778 c 0,-0.4229 0.3442,-0.7676 0.7671,-0.7676 h 5.739 c 0.4224,0 0.7673,0.3447 0.7673,0.7676 v 57.8404 c 0,0.4229 -0.3449,0.7673 -0.7673,0.7673 h -5.739 c -0.4229,0 -0.7671,-0.3444 -0.7671,-0.7673 v -25.4384 c 0,-0.4232 -0.3449,-0.7676 -0.7682,-0.7676 h -19.279 c -0.422,0 -0.767,0.3444 -0.767,0.7676 v 25.4384 c 0,0.4229 -0.3453,0.7673 -0.7673,0.7673 h -5.7382 c -0.4229,0 -0.7682,-0.3444 -0.7682,-0.7673 v -57.8404 c 0,-0.4229 0.3453,-0.7676 0.7682,-0.7676 z m 60.7779,-0.7631 c 9.4,0 17.2332,8.3126 17.2332,22.4776 v 1.2722 c 0,14.1653 -7.8332,22.4779 -17.1212,22.4779 -9.4,0 -17.2333,-8.3126 -17.2333,-22.4779 v -1.2722 c 0,-14.165 7.8333,-22.4776 17.1213,-22.4776 z m 0,4.8348 c -5.7067,0 -10.1832,6.7008 -10.1832,17.6428 v 1.3575 c 0,10.9417 4.4765,17.5578 10.1832,17.5578 5.707,0 10.1832,-6.6161 10.1832,-17.5578 v -1.3575 c 0,-10.942 -4.4762,-17.6428 -10.1832,-17.6428 z m 26.6168,-4.0717 h 5.4036 c 0.423,0 0.7674,0.3447 0.7674,0.7676 v 30.0231 c 0,6.1073 4.0283,10.0934 9.1754,10.0934 4.9241,0 7.945,-3.3078 7.945,-9.5848 v -30.5317 c 0,-0.4229 0.345,-0.7676 0.767,-0.7676 h 5.4037 c 0.4224,0 0.7674,0.3447 0.7674,0.7676 v 30.0231 c 0,6.1073 4.0283,10.0934 9.1763,10.0934 4.9235,0 7.9449,-3.3078 7.9449,-9.5848 v -30.5317 c 0,-0.4229 0.345,-0.7676 0.7671,-0.7676 h 5.4028 c 0.4232,0 0.7682,0.3447 0.7682,0.7676 v 31.2953 c 0,8.8212 -5.595,13.4864 -13.0929,13.4864 -5.9344,0 -9.5179,-2.9466 -11.7264,-5.9448 -0.1576,-0.214 -0.3917,-0.3248 -0.6562,-0.3115 -0.2656,0.0127 -0.4867,0.1468 -0.6225,0.3756 -1.9641,3.3137 -5.1415,5.8807 -10.6064,5.8807 -4.7375,0 -7.8435,-2.1359 -10.0414,-4.9444 -0.2053,-0.2628 -0.5398,-0.3615 -0.855,-0.2523 -0.3143,0.1085 -0.517,0.392 -0.517,0.7254 v 2.9406 c 0,0.4232 -0.3444,0.7676 -0.7674,0.7676 h -5.4036 c -0.4221,0 -0.7671,-0.3444 -0.7671,-0.7676 v -43.251 c 0,-0.4229 0.345,-0.7676 0.7671,-0.7676 z m 81.7041,-0.6784 c 4.5054,0 7.4681,0.701 11.4514,2.4775 0.3152,0.1401 0.4938,0.4589 0.4479,0.8017 l -0.4576,3.4684 c -0.0328,0.2512 -0.1712,0.453 -0.394,0.5738 -0.2228,0.1213 -0.4671,0.1281 -0.6956,0.0195 -3.4189,-1.6228 -5.9587,-2.3366 -9.3444,-2.3366 -6.8672,0 -12.4608,4.7483 -13.1587,14.872 -0.0153,0.22 0.0539,0.4153 0.2041,0.5766 0.1505,0.1615 0.341,0.244 0.5615,0.244 h 23.9346 c 0.423,0 0.7674,0.3444 0.7674,0.7674 v 2.6251 c 0,14.1653 -6.6022,22.0536 -15.7782,22.0536 -8.9521,0 -16.6734,-7.634 -16.6734,-22.8169 v -1.1875 c 0,-14.6747 8.9518,-22.1386 19.135,-22.1386 z m -12.1649,25.9127 c 0.5117,10.3158 4.5763,15.3955 9.7033,15.3955 5.2234,0 8.8599,-6.2569 9.0564,-15.4168 0.004,-0.2146 -0.0692,-0.4005 -0.2188,-0.5536 -0.1506,-0.1531 -0.3345,-0.231 -0.5494,-0.231 h -17.2242 c -0.2179,0 -0.4062,0.0805 -0.5564,0.2389 -0.1505,0.1579 -0.2211,0.3493 -0.2109,0.567 z m 33.6345,-25.2343 h 7.6419 c 0.4221,0 0.7674,0.3447 0.7674,0.7676 v 6.6929 c 0,0.4223 -0.3453,0.7676 -0.7674,0.7676 h -7.6419 c -0.4221,0 -0.7671,-0.3453 -0.7671,-0.7676 v -6.6929 c 0,-0.4229 0.345,-0.7676 0.7671,-0.7676 z m 17.1213,0 h 30.1337 c 0.4223,0 0.7673,0.3447 0.7673,0.7676 v 3.4693 c 0,0.4224 -0.345,0.7674 -0.7673,0.7674 h -21.858 c -0.2713,0 -0.5034,0.1281 -0.6483,0.3566 -0.1448,0.2287 -0.1616,0.4932 -0.0468,0.7378 l 23.2473,49.3892 c 0.0504,0.1074 0.0731,0.2086 0.0731,0.3268 v 2.7933 c 0,0.4229 -0.345,0.7673 -0.7673,0.7673 h -29.0149 c -0.4224,0 -0.7674,-0.3444 -0.7674,-0.7673 v -3.3846 c 0,-0.4226 0.345,-0.7676 0.7674,-0.7676 h 20.7394 c 0.2701,0 0.5026,-0.1281 0.6483,-0.3566 0.1445,-0.2285 0.1615,-0.4932 0.0459,-0.7376 l -23.2464,-49.3892 c -0.0507,-0.1074 -0.0731,-0.2086 -0.0731,-0.3268 v -2.878 c 0,-0.4229 0.345,-0.7676 0.7671,-0.7676 z m 50.0947,-0.3393 h 5.9351 c 0.3612,0 0.6659,0.2412 0.7481,0.5924 l 10.188,43.5297 c 0.0819,0.3512 0.3875,0.5924 0.7486,0.5924 0.3612,-6e-4 0.665,-0.2426 0.7464,-0.5941 l 10.0851,-43.5263 c 0.0811,-0.3523 0.3861,-0.5941 0.7478,-0.5941 h 6.0454 c 0.3651,0 0.6724,0.2469 0.7504,0.6035 l 12.7559,58.1791 c 0.0516,0.2353 -9e-4,0.4583 -0.152,0.6454 -0.1505,0.1874 -0.3571,0.2866 -0.5975,0.2866 h -5.8017 c -0.3699,0 -0.6812,-0.2554 -0.7529,-0.6188 l -8.5858,-43.5436 c -0.0709,-0.3591 -0.3742,-0.6128 -0.7399,-0.6188 -0.3659,-0.007 -0.678,0.237 -0.7608,0.5931 l -10.131,43.5945 c -0.0819,0.3515 -0.3869,0.5936 -0.7478,0.5936 h -5.4961 c -0.3603,0 -0.6644,-0.2407 -0.7472,-0.5919 l -10.2339,-43.5974 c -0.0836,-0.3566 -0.3963,-0.5992 -0.7623,-0.5919 -0.3651,0.007 -0.6684,0.2617 -0.7384,0.6205 l -8.4829,43.5402 c -0.0718,0.364 -0.383,0.6205 -0.7535,0.6205 h -6.0239 c -0.2404,0 -0.447,-0.0992 -0.5975,-0.2866 -0.1511,-0.1871 -0.2033,-0.4101 -0.152,-0.6454 l 12.7568,-58.1791 c 0.0779,-0.3566 0.3852,-0.6035 0.7495,-0.6035" />
        </g>
      </g>
    </g>
  </g>
</svg>
