<svg height="512pt" viewBox="0 0 512 512" width="512pt" xmlns="http://www.w3.org/2000/svg"><path d="m140.257812 380.730469c11.292969-11.421875 18.277344-27.105469 18.277344-44.398438 0-34.847656-28.351562-63.199219-63.199218-63.199219-34.851563 0-63.203126 28.351563-63.203126 63.199219 0 17.292969 6.984376 32.976563 18.277344 44.398438-22.488281 12.046875-50.410156 40.113281-50.410156 84.136719v32.132812c0 8.285156 6.714844 15 15 15h160.667969c8.28125 0 15-6.714844 15-15v-32.132812c0-44.015626-27.878907-72.066407-50.410157-84.136719zm-78.125-44.398438c0-18.304687 14.894532-33.199219 33.199219-33.199219 18.308594 0 33.199219 14.894532 33.199219 33.199219 0 18.308594-14.890625 33.199219-33.199219 33.199219-18.304687 0-33.199219-14.890625-33.199219-33.199219zm98.535157 145.667969h-130.667969v-17.132812c0-36.085938 29.195312-65.332032 65.332031-65.332032 36.078125 0 65.332031 29.191406 65.332031 65.332032v17.132812zm0 0"/><path d="m381.367188 132.511719c6.335937-8.027344 10.132812-18.148438 10.132812-29.144531 0-25.988282-21.144531-47.132813-47.132812-47.132813-25.988282 0-47.132813 21.144531-47.132813 47.132813 0 10.980468 3.785156 21.089843 10.105469 29.109374-24.683594 17.921876-26.171875 43.652344-26.171875 51.207032v24.117187c0 8.285157 6.714843 15 15 15h96.398437c8.285156 0 15-6.714843 15-15v-24.101562c0-21.035157-10.339844-39.691407-26.199218-51.1875zm-37-46.277344c9.445312 0 17.132812 7.683594 17.132812 17.132813 0 9.445312-7.6875 17.132812-17.132812 17.132812-9.445313 0-17.132813-7.6875-17.132813-17.132812 0-9.449219 7.683594-17.132813 17.132813-17.132813zm33.199218 106.566406h-66.398437v-9.117187c0-18.296875 14.800781-33.183594 33.199219-33.183594 18.308593 0 33.199218 14.894531 33.199218 33.199219zm0 0"/><path d="m456.832031 0h-224.933593c-30.417969 0-55.164063 24.746094-55.164063 55.167969v265.097656c0 6.070313 3.652344 11.539063 9.257813 13.859375 5.226562 2.164062 11.773437 1.320312 16.347656-3.253906l43.808594-43.804688h210.6875c14.726562 0 28.578124-5.734375 39.015624-16.160156 10.414063-10.425781 16.148438-24.277344 16.148438-39.007812v-176.730469c0-30.421875-24.746094-55.167969-55.167969-55.167969zm25.167969 231.898438c0 6.722656-2.617188 13.046874-7.363281 17.792968-4.691407 4.6875-11.179688 7.375-17.804688 7.375h-216.898437c-3.980469 0-7.792969 1.582032-10.605469 4.394532l-22.59375 22.59375v-228.886719c0-13.878907 11.289063-25.167969 25.164063-25.167969h224.9375c13.875 0 25.164062 11.289062 25.164062 25.167969zm0 0"/></svg>