<svg height="512pt" viewBox="-46 0 512 512" width="512pt" xmlns="http://www.w3.org/2000/svg"><path fill="#ffffff" d="m309.878906 365.199219c-17.933594 0-32.523437 14.601562-32.523437 32.550781 0 17.933594 14.589843 32.523438 32.523437 32.523438 17.921875 0 32.5-14.589844 32.5-32.523438 0-17.949219-14.578125-32.550781-32.5-32.550781zm0 50.089843c-9.667968 0-17.535156-7.867187-17.535156-17.539062 0-9.6875 7.867188-17.566406 17.535156-17.566406 9.65625 0 17.511719 7.878906 17.511719 17.566406 0 9.671875-7.855469 17.539062-17.511719 17.539062zm0 0"/><path d="m109.289062 429.367188c18.433594 0 33.433594-15.007813 33.433594-33.460938 0-18.449219-15-33.457031-33.433594-33.457031-18.433593 0-33.429687 15.007812-33.429687 33.457031 0 18.453125 14.996094 33.460938 33.429687 33.460938zm0-51.933594c10.171876 0 18.445313 8.289062 18.445313 18.472656 0 10.1875-8.273437 18.476562-18.445313 18.476562-10.167968 0-18.441406-8.289062-18.441406-18.476562 0-10.183594 8.273438-18.472656 18.441406-18.472656zm0 0"/><path d="m400.773438 375.402344h-9.097657v-129.113282c0-4.136718-3.355469-7.492187-7.496093-7.492187-4.136719 0-7.492188 3.355469-7.492188 7.492187v129.113282h-4.367188c-2.59375-8.175782-8.183593-15.035156-15.472656-19.273438v-108.535156c0-8.414062-6.832031-15.257812-15.226562-15.257812h-110.996094c-8.410156 0-15.253906 6.84375-15.253906 15.257812v49.4375c-6.113282.011719-12.023438.414062-17.660156 1.175781v-50.613281c0-8.414062-6.84375-15.257812-15.25-15.257812h-111c-8.394532 0-15.226563 6.84375-15.226563 15.257812v109.703125c-5.019531 4.796875-8.621094 11.066406-10.121094 18.105469h-11.644531v-346.535156c0-7.652344 6.625-13.878907 14.761719-13.878907h312.695312c8.136719 0 14.761719 6.226563 14.761719 13.878907v182.78125c0 4.140624 3.351562 7.496093 7.492188 7.496093 4.140624 0 7.496093-3.355469 7.496093-7.496093v-182.78125c0-15.917969-13.347656-28.867188-29.75-28.867188h-312.695312c-16.402344 0-29.75 12.949219-29.75 28.867188v346.535156h-1.253907c-10.050781 0-18.226562 8.183594-18.226562 18.238281v17.605469c0 9 6.578125 16.476562 15.183594 17.933594l9.722656 57.832031c2.511719 14.945312 14.128906 24.988281 28.914062 24.988281h311.757813c14.78125 0 26.402344-10.042969 28.910156-24.988281l9.734375-57.894531c8.40625-1.617188 14.777344-9.011719 14.777344-17.871094v-17.605469c0-10.054687-8.175781-18.238281-18.226562-18.238281zm-41.839844 10.328125c0 6.757812-3.429688 12.902343-9.175782 16.4375-3.386718 2.085937-4.554687 6.449219-2.664062 9.945312 1.503906 2.78125 2.296875 5.941407 2.296875 9.136719 0 10.625-8.617187 19.265625-19.207031 19.265625-5.3125 0-10.242188-2.109375-13.875-5.941406-1.414063-1.488281-3.375-2.332031-5.425782-2.335938-.003906 0-.007812 0-.011718 0-2.046875 0-4.007813.839844-5.421875 2.320313-3.664063 3.839844-8.597657 5.957031-13.890625 5.957031-10.605469 0-19.234375-8.644531-19.234375-19.265625 0-3.359375.871093-6.660156 2.523437-9.546875 2.019532-3.53125.847656-8.035156-2.636718-10.136719-5.832032-3.515625-9.316407-9.691406-9.316407-16.515625 0-10.609375 8.628907-19.238281 19.234375-19.238281.8125 0 1.550782.042969 2.195313.132812 3.625.492188 7.082031-1.714843 8.164062-5.214843 2.503907-8.117188 9.894531-13.570313 18.382813-13.570313 8.582031 0 16.1875 5.769532 18.492187 14.023438.988281 3.539062 4.398438 5.839844 8.042969 5.433594.742188-.082032 1.511719-.125 2.289062-.125 10.609376 0 19.238282 8.628906 19.238282 19.238281zm-128.574219-138.136719c0-.140625.128906-.273438.265625-.273438h110.996094c.09375 0 .238281.117188.238281.273438v103.980469c-.058594 0-.113281-.007813-.167969-.011719-5.613281-11.65625-17.5625-19.390625-30.820312-19.390625-1.546875 0-3.070313.109375-4.566406.308594-6.285157-9.0625-16.316407-14.894531-27.339844-15.746094-10.636719-11.324219-30.625-17.070313-48.605469-18.957031zm-8.078125 64.585938c21.761719 1.074218 40.675781 7.65625 47.0625 16.378906 1.453125 1.984375 3.789062 3.136718 6.246094 3.0625 5.96875-.152344 11.773437 2.320312 15.957031 6.503906-4.675781 3.191406-8.550781 7.535156-11.183594 12.742188-14.746093.753906-27.050781 10.886718-31.066406 24.535156h-74.808594c-3.511719-14.960938-16.582031-26.28125-32.382812-27.109375-1.539063-3.230469-3.566407-6.160157-5.949219-8.738281 4.660156-5.703126 11.976562-8.75 19.539062-7.789063 2.441407.300781 4.878907-.605469 6.519532-2.4375 10.488281-11.699219 34.0625-18.441406 60.066406-17.148437zm36.808594 98.230468c-.441406 1.324219-.773438 2.683594-1.050782 4.054688h-92.992187c-.277344-1.65625-.664063-3.292969-1.175781-4.894532 5.621094-5.070312 9.40625-11.769531 10.871094-19.179687h73.574218c1.195313 7.761719 4.980469 14.78125 10.773438 20.019531zm-187.867188-162.816406c0-.15625.144532-.273438.238282-.273438h110.996093c.140625 0 .265625.132813.265625.273438v53.671875c-11.839844 3.324219-21.816406 8.53125-29.019531 15.34375-11.734375-.242187-22.789063 5.136719-29.851563 14.34375-4.207031-1.761719-8.789062-2.75-13.542968-2.75-13.542969 0-25.546875 7.585937-31.429688 19.371094-2.636718.121093-5.199218.546875-7.65625 1.222656zm9.296875 114.929688c.886719 0 1.667969.046874 2.382813.136718 3.617187.46875 7.046875-1.738281 8.121094-5.226562 2.625-8.519532 10.375-14.242188 19.285156-14.242188 9.03125 0 17.03125 6.058594 19.457031 14.734375.984375 3.519531 4.359375 5.820313 8 5.4375.824219-.085937 1.632813-.128906 2.472656-.128906 11.140625 0 20.199219 9.074219 20.199219 20.230469 0 7.085937-3.609375 13.539062-9.65625 17.257812-3.390625 2.085938-4.558594 6.457032-2.660156 9.957032 1.613281 2.972656 2.433594 6.195312 2.433594 9.578124 0 11.167969-9.074219 20.257813-20.226563 20.257813-5.566406 0-10.753906-2.21875-14.601563-6.246094-1.414062-1.480469-3.371093-2.316406-5.417968-2.316406s-4.003906.835937-5.417969 2.316406c-3.847656 4.027344-9.035156 6.246094-14.601563 6.246094-11.136718 0-20.199218-9.089844-20.199218-20.257813 0-3.519531.921875-6.984374 2.664062-10.023437 2.023438-3.535156.851563-8.042969-2.636718-10.144531-6.132813-3.699219-9.792969-10.179688-9.792969-17.335938-.003907-11.152344 9.058593-20.230468 20.195312-20.230468zm-62.292969 51.941406c-1.785156 0-3.238281-1.445313-3.238281-3.222656v-17.601563c0-1.761719 1.484375-3.25 3.238281-3.25h27.929688c1.566406 7.175781 5.324219 13.632813 10.816406 18.546875-.609375 1.800781-1.074218 3.652344-1.386718 5.527344zm361.480469 70.0625c-.96875 5.761718-5.246093 12.488281-14.128906 12.488281h-311.757813c-8.875 0-13.117187-6.449219-14.128906-12.488281l-9.261718-55.074219h25.898437c4.046875 14.988281 17.738281 26.050781 33.964844 26.050781 7.28125 0 14.191406-2.179687 20.019531-6.234375 5.828125 4.054688 12.734375 6.234375 20.019531 6.234375 16.238281 0 29.9375-11.0625 33.992188-26.050781h94.011719c3.683593 14.9375 17.179687 26.050781 33.226562 26.050781 7.011719 0 13.667969-2.082031 19.300781-5.960937 5.625 3.878906 12.289063 5.960937 19.320313 5.960937 16.023437 0 29.503906-11.097656 33.191406-26.019531 2.917969.101563 6.660156.148437 11.546875.148437 3.902344 0 8.539063-.03125 14.035156-.085937zm24.304688-73.285156c0 1.777343-1.453125 3.222656-3.238281 3.222656h-2.945313c-.664063 0-2.144531.019531-4.167969.039062-14.378906.167969-24.40625.164063-29.976562-.007812-.238282-1.171875-.511719-2.335938-.867188-3.476563 5.910156-5.390625 9.707032-12.648437 10.78125-20.628906h27.175782c1.753906 0 3.238281 1.488281 3.238281 3.25zm0 0"/><path d="m71.460938 35.773438c-8.394532 0-15.226563 6.832031-15.226563 15.234374v148.367188c0 8.414062 6.832031 15.261719 15.226563 15.261719h110.996093c8.410157 0 15.253907-6.847657 15.253907-15.261719v-148.367188c0-8.398437-6.84375-15.234374-15.253907-15.234374zm111.261718 15.234374v148.367188c0 .140625-.128906.273438-.265625.273438h-110.996093c-.09375 0-.238282-.117188-.238282-.273438v-148.367188c0-.121093.140625-.246093.238282-.246093h110.996093c.144531 0 .265625.132812.265625.246093zm0 0"/><path d="m222.863281 134.535156c-4.136719 0-7.492187 3.355469-7.492187 7.496094v57.34375c0 8.414062 6.84375 15.261719 15.25 15.261719h111c8.394531 0 15.222656-6.847657 15.222656-15.261719v-148.367188c0-8.398437-6.828125-15.234374-15.222656-15.234374h-110.996094c-8.410156 0-15.253906 6.832031-15.253906 15.234374v56.410157c0 4.140625 3.355468 7.492187 7.496094 7.492187 4.136718 0 7.492187-3.355468 7.492187-7.492187v-56.410157c0-.109374.125-.246093.265625-.246093h110.996094c.109375 0 .238281.132812.238281.246093v148.367188c0 .15625-.144531.273438-.238281.273438h-110.996094c-.136719 0-.265625-.132813-.265625-.273438v-57.34375c0-4.140625-3.355469-7.496094-7.496094-7.496094zm0 0"/></svg>
